# AST/ASF file generated using VICON BodyLanguage
# -----------------------------------------------
:version 1.10
:name VICON
:units
  mass 1.0
  length 0.45
  angle deg
:documentation
   .ast/.asf automatically generated from VICON data using
   VICON BodyBuilder and BodyLanguage model FoxedUp or BRILLIANT.MOD
:root
   order TX TY TZ RX RY RZ
   axis XYZ
   position 0 0 0  
   orientation 0 0 0 
:bonedata
  begin
     id 1 
     name lhipjoint
     direction 0.671379 -0.66392 0.329334 
     length 2.38647 
     axis 0 0 0  XYZ
  end
  begin
     id 2 
     name lfemur
     direction 0.34202 -0.939693 0  
     length 6.48179  
     axis 0 0 20  XYZ
    dof rx ry rz
    limits (-160.0 20.0)
           (-70.0 70.0)
           (-60.0 70.0)
  end
  begin
     id 3 
     name ltibia
     direction 0.34202 -0.939693 0   
     length 6.86524   
     axis 0 0 20   XYZ
    dof rx
    limits (-10.0 170.0)
  end
  begin
     id 4 
     name lfoot
     direction 0.204886 -0.562919 0.800715   
     length 1.73031   
     axis -90 7.62852e-016 20   XYZ
    dof rx rz
    limits (-45.0 90.0)
           (-70.0 20.0)
  end
  begin
     id 5 
     name ltoes
     direction 1.53548e-011 -4.21841e-011 1   
     length 0.828161   
     axis -90 7.62852e-016 20   XYZ
    dof rx
    limits (-90.0 20.0)
  end
  begin
     id 6 
     name rhipjoint
     direction -0.662732 -0.670855 0.332775   
     length 2.3618  
     axis 0 0 0  XYZ 
  end
  begin
     id 7 
     name rfemur
     direction -0.34202 -0.939693 0   
     length 6.3025   
     axis 0 0 -20   XYZ
    dof rx ry rz
    limits (-160.0 20.0)
           (-70.0 70.0)
           (-70.0 60.0)
  end
  begin
     id 8 
     name rtibia
     direction -0.34202 -0.939693 0   
     length 6.8732   
     axis 0 0 -20   XYZ
    dof rx
    limits (-10.0 170.0)
 end
 begin
     id 9 
     name rfoot
     direction -0.173856 -0.477665 0.861168   
     length 1.54784  
     axis -90 -7.62852e-016 -20   XYZ
    dof rx rz
    limits (-45.0 90.0)
           (-20.0 70.0)
  end
  begin
     id 10 
     name rtoes
     direction -1.53562e-011 -4.21802e-011 1   
     length 0.759618   
     axis -90 -7.62852e-016 -20   XYZ
    dof rx
    limits (-90.0 20.0)
  end
  begin
     id 11 
     name lowerback
     direction -0.0278357 0.999497 -0.0151789   
     length 1.97203   
     axis 0 0 0   XYZ
    dof rx ry rz
    limits (-20.0 45.0)
           (-30.0 30.0)
           (-30.0 30.0)
  end
  begin
     id 12 
     name upperback
     direction -0.00360622 0.997542 0.0699804   
     length 1.94709   
     axis 0 0 0   XYZ
    dof rx ry rz
    limits (-20.0 45.0)
           (-30.0 30.0)
           (-30.0 30.0)
  end
  begin
     id 13 
     name thorax
     direction 0.00907706 0.997048 0.0762461   
     length 1.95722   
     axis 0 0 0   XYZ
    dof rx ry rz
    limits (-20.0 45.0)
           (-30.0 30.0)
           (-30.0 30.0)
  end
  begin
     id 14 
     name lowerneck
     direction -0.0481835 0.99872 -0.0153927   
     length 1.63078   
     axis 0 0 0   XYZ
    dof rx ry rz
    limits (-20.0 45.0)
           (-30.0 30.0)
           (-30.0 30.0)
  end
  begin
     id 15 
     name upperneck
     direction 0.0859716 0.979226 -0.183644   
     length 1.62591   
     axis 0 0 0   XYZ
    dof rx ry rz
    limits (-20.0 45.0)
           (-30.0 30.0)
           (-30.0 30.0)
  end
  begin
     id 16
     name head
     direction 0.0324821 0.997629 -0.0606773  
     length 1.64811  
     axis 0 0 0   XYZ
    dof rx ry rz
    limits (-20.0 45.0)
           (-30.0 30.0)
           (-30.0 30.0)
  end
  begin
     id 17 
     name lclavicle
     direction 0.939609 0.311019 0.142835  
     length 3.70647  
     axis 0 0 0   XYZ
    dof ry rz
    limits (-20.0 10.0)
           (0.0 20.0)
  end
  begin
     id 18 
     name lhumerus
     direction 1 -4.48963e-011 -1.59838e-027   
     length 4.59207   
     axis 180 -30 -90   XYZ
    dof rx ry rz
    limits (-60.0 90.0)
           (-90.0 90.0)
           (-90.0 90.0)
  end
  begin
     id 19
     name lradius
     direction 1 -4.48957e-011 -1.3483e-026   
     length 2.98109   
     axis 180 -30 -90   XYZ
    dof rx
    limits (-10.0 170.0)
  end
  begin
     id 20
     name lwrist
     direction 1 -4.48954e-011 -3.11579e-026   
     length 1.49055   
     axis 2.00652e-014 90 90   XYZ
    dof ry
    limits (-180.0 0.0)
 end
  begin
     id 21 
     name lhand
     direction 1 -4.4911e-011 -6.23158e-026   
     length 0.480203   
     axis 3.97628e-014 90 90   XYZ
    dof rx rz
    limits (-90.0 90.0)
           (-45.0 45.0)
  end
  begin
     id 22 
     name lfingers
     direction 1 -4.48893e-011 -1.24632e-025   
     length 0.387152   
     axis 7.95256e-014 90 90   XYZ
    dof rx
    limits (0.0 90.0)
  end
  begin
     id 23
     name lthumb
     direction 0.707107 -6.35013e-011 0.707107   
     length 0.555875   
     axis -90 45 2.85299e-015   XYZ
    dof rx rz
    limits (-45.0 45.0)
           (-45.0 45.0)
  end
  begin
     id 24 
     name rclavicle
     direction -0.950396 0.30392 0.0661859   
     length 3.70894  
     axis 0 0 0   XYZ 
    dof ry rz
    limits (-10.0 20.0)
           (-20.0 0.0)
  end
  begin
     id 25 
     name rhumerus
     direction -1 -4.48957e-011 -2.96677e-027  
     length 4.76508   
     axis 180 30 90   XYZ
    dof rx ry rz
    limits (-90.0 60.0)
           (-90.0 90.0)
           (-90.0 90.0)
  end
  begin
     id 26 
     name rradius
     direction -1 -4.48974e-011 -1.44501e-026   
     length 2.78902   
     axis 180 30 90   XYZ
    dof rx
    limits (-10.0 170.0)
  end
  begin
     id 27 
     name rwrist
     direction -1 -4.48978e-011 -3.11579e-026   
     length 1.39451   
     axis 2.00652e-014 -90 -90   XYZ
    dof ry
    limits (-180.0 0.0)
  end
  begin
     id 28
     name rhand
     direction -1 -4.48956e-011 -6.23158e-026   
     length 0.721303   
     axis 3.97628e-014 -90 -90   XYZ
    dof rx rz
    limits (-90.0 90.0)
           (-45.0 45.0)
  end
  begin
     id 29
     name rfingers
     direction -1 -4.4899e-011 -1.24632e-025   
     length 0.581533   
     axis 7.95256e-014 -90 -90   XYZ
    dof rx
    limits (0.0 90.0)
  end
  begin
     id 30
     name rthumb
     direction -0.707107 -6.34911e-011 0.707107   
     length 0.834968   
     axis -90 -45 -2.85299e-015   XYZ
    dof rx rz
    limits (-45.0 45.0)
           (-45.0 45.0)
  end
:hierarchy
  begin
    root lhipjoint rhipjoint lowerback
    lhipjoint lfemur
    lfemur ltibia
    ltibia lfoot
    lfoot ltoes
    rhipjoint rfemur
    rfemur rtibia
    rtibia rfoot
    rfoot rtoes
    lowerback upperback
    upperback thorax
    thorax lowerneck lclavicle rclavicle
    lowerneck upperneck
    upperneck head
    lclavicle lhumerus
    lhumerus lradius
    lradius lwrist
    lwrist lhand lthumb
    lhand lfingers
    rclavicle rhumerus
    rhumerus rradius
    rradius rwrist
    rwrist rhand rthumb
    rhand rfingers
  end

#!OML:ASF I:\salsa\salsa 7_09\Patient 1\Session 1\dancerfemale.ASF
:FULLY-SPECIFIED
:DEGREES
344
root 13.2016 15.3805 -1.80378 140.208 -79.096 -142.545
lowerback 7.7936 -2.13583 -0.453962
upperback -5.91334 -2.91357 1.14086
thorax -10.6296 -1.35382 1.97586
lowerneck -7.75654 2.72415 -1.66846
upperneck 18.5811 1.86212 9.31016
head 6.81332 1.39582 3.42001
rclavicle -1.72943e-014 -1.51076e-014
rhumerus -2.09584 42.6659 -90.5393
rradius 78.8399
rwrist -0.230607
rhand 12.5487 37.5185
rfingers 7.12502
rthumb 37.5395 11.5954
lclavicle -1.72943e-014 -1.51076e-014
lhumerus -73.2691 -8.07143 88.1142
lradius 99.5633
lwrist -23.0843
lhand -40.0209 18.0563
lfingers 7.12502
lthumb -12.9879 47.632
rfemur -15.6519 -5.19388 34.754
rtibia 37.3116
rfoot -20.2332 -3.83684
rtoes 4.18229
lfemur -24.9552 9.18946 -10.5911
ltibia 81.5885
lfoot -4.19911 14.1957
ltoes 4.04194
345
root 13.0754 15.3584 -1.84649 138.678 -78.6492 -141.311
lowerback 7.8339 -1.51068 -0.461547
upperback -5.87163 -2.03179 1.56765
thorax -10.6203 -0.909943 2.29273
lowerneck -7.60003 2.21955 -2.29837
upperneck 18.4526 1.34831 8.98152
head 6.76919 1.07938 3.375
rclavicle -1.15295e-014 2.38542e-015
rhumerus -5.25544 41.9745 -94.028
rradius 76.9206
rwrist 1.68042
rhand 12.2593 39.1166
rfingers 7.12502
rthumb 37.266 13.1214
lclavicle -1.15295e-014 2.38542e-015
lhumerus -72.8847 -6.88942 87.2509
lradius 99.1841
lwrist -23.8072
lhand -40.057 19.6612
lfingers 7.12502
lthumb -13.0227 49.2347
rfemur -14.5161 -5.65594 35.2913
rtibia 36.7936
rfoot -20.4396 -3.52184
rtoes 4.51204
lfemur -27.1531 9.21329 -9.60067
ltibia 82.609
lfoot -4.58168 14.2579
ltoes 3.35363
346
root 12.9564 15.3125 -1.87249 136.524 -78.2081 -139.275
lowerback 7.71892 -0.696565 0.0481358
upperback -5.88061 -0.846287 1.86434
thorax -10.6114 -0.365143 2.12511
lowerneck -7.19625 1.41832 -3.03452
upperneck 18.0879 0.436988 8.71901
head 6.63246 0.561779 3.33242
rclavicle -2.0773e-014 1.90833e-014
rhumerus -8.68225 40.1973 -97.3171
rradius 75.3587
rwrist 3.12419
rhand 11.9449 40.488
rfingers 7.12502
rthumb 36.9686 14.4154
lclavicle -2.0773e-014 1.90833e-014
lhumerus -71.5158 -6.5484 86.754
lradius 98.9795
lwrist -23.5596
lhand -41.2572 18.9501
lfingers 7.12502
lthumb -14.1795 48.4462
rfemur -13.7838 -5.89644 35.94
rtibia 36.6458
rfoot -21.0121 -3.46884
rtoes 5.31357
lfemur -29.5903 8.90966 -8.60432
ltibia 83.0817
lfoot -5.66246 14.7546
ltoes 6.42925
347
root 12.8054 15.3087 -1.89059 138.357 -77.2385 -141.733
lowerback 7.4825 0.708952 0.422254
upperback -5.62258 1.10673 2.00366
thorax -10.2456 0.555689 1.73542
lowerneck -6.96338 0.376598 -4.36366
upperneck 17.8306 -0.841598 9.01856
head 6.59079 -0.12314 3.55423
rclavicle 2.74323e-014 -6.36111e-015
rhumerus -11.5038 37.9039 -99.6571
rradius 73.5627
rwrist 3.79843
rhand 11.177 41.4591
rfingers 7.12502
rthumb 36.2418 15.2023
lclavicle 2.74323e-014 -6.36111e-015
lhumerus -68.1335 -7.51502 86.698
lradius 98.3303
lwrist -21.4944
lhand -40.5167 18.3071
lfingers 7.12502
lthumb -13.4658 47.8518
rfemur -12.182 -5.42057 36.1468
rtibia 36.3822
rfoot -21.8352 -3.16199
rtoes 4.00896
lfemur -30.4206 9.33066 -7.78359
ltibia 82.3273
lfoot -8.20791 15.214
ltoes 3.43143
348
root 12.7048 15.3094 -1.89679 136.27 -77.8209 -139.4
lowerback 7.24126 1.72736 0.845492
upperback -5.76492 2.52026 1.9514
thorax -10.2794 1.20505 1.21699
lowerneck -6.12037 -0.930838 -5.31491
upperneck 17.0224 -2.41894 8.74148
head 6.30793 -0.986433 3.49365
rclavicle -1.21259e-014 -1.19271e-014
rhumerus -14.5105 34.2597 -101.476
rradius 72.4795
rwrist 4.6561
rhand 9.97847 42.1338
rfingers 7.12502
rthumb 35.1059 15.6026
lclavicle -1.21259e-014 -1.19271e-014
lhumerus -64.2517 -8.65602 87.0551
lradius 98.0301
lwrist -20.5662
lhand -40.1163 18.9884
lfingers 7.12502
lthumb -13.0799 48.5583
rfemur -11.9035 -5.50598 36.1147
rtibia 36.0455
rfoot -22.8785 -3.44377
rtoes -0.193429
lfemur -33.1031 7.65838 -7.87024
ltibia 80.9641
lfoot -10.018 16.4519
ltoes 0.717731
349
root 12.5834 15.3297 -1.89994 136.499 -78.2821 -139.572
lowerback 6.82744 3.06097 1.01826
upperback -5.7814 4.3113 1.73943
thorax -10.0547 2.05361 0.627994
lowerneck -5.66593 -2.31798 -6.79769
upperneck 16.6366 -4.21816 9.23303
head 6.28242 -1.92338 3.76812
rclavicle 3.8763e-015 -2.22639e-014
rhumerus -17.2755 29.289 -102.373
rradius 72.4823
rwrist 7.03879
rhand 9.61085 41.9377
rfingers 7.12502
rthumb 34.7571 15.3253
lclavicle 3.8763e-015 -2.22639e-014
lhumerus -59.6896 -10.1671 87.7762
lradius 97.5775
lwrist -20.135
lhand -39.5459 19.6237
lfingers 7.12502
lthumb -12.53 49.228
rfemur -11.0813 -5.02759 35.7407
rtibia 35.3922
rfoot -23.0732 -4.26293
rtoes -0.279579
lfemur -34.8158 6.31216 -8.15769
ltibia 78.5707
lfoot -11.4422 17.3801
ltoes 0.250569
350
root 12.4328 15.3659 -1.89751 138.3 -78.3543 -141.565
lowerback 6.19665 4.63691 1.28648
upperback -5.64006 6.42217 1.45788
thorax -9.48311 3.06055 -0.0804026
lowerneck -5.36364 -3.71734 -8.61446
upperneck 16.5319 -6.15538 10.4003
head 6.45392 -2.89785 4.30547
rclavicle 7.07673e-014 6.36111e-015
rhumerus -19.4974 25.022 -102.321
rradius 71.7397
rwrist 7.75216
rhand 7.51015 41.5879
rfingers 7.12502
rthumb 32.7611 14.5376
lclavicle 7.07673e-014 6.36111e-015
lhumerus -54.5279 -11.9459 88.5331
lradius 96.9104
lwrist -19.5005
lhand -38.3051 19.8234
lfingers 7.12502
lthumb -11.3336 49.4972
rfemur -9.68333 -4.06106 35.3384
rtibia 34.546
rfoot -22.6476 -5.22861
rtoes 3.57719
lfemur -35.5513 5.47657 -8.31869
ltibia 75.4343
lfoot -12.6369 18.0518
ltoes -0.355766
